<svg width="120" height="18" viewBox="0 0 120 18" fill="none" xmlns="http://www.w3.org/2000/svg">
<g clip-path="url(#clip0_118_2)">
<path d="M3.293 11.079L0.555 13.077C0.851 13.7307 1.28883 14.3227 1.8685 14.853C2.44817 15.3833 3.13267 15.7965 3.922 16.0925C4.72367 16.4008 5.587 16.555 6.512 16.555C7.178 16.555 7.8255 16.4625 8.4545 16.2775C9.0835 16.0925 9.64467 15.8212 10.138 15.4635C10.6437 15.1058 11.0445 14.6557 11.3405 14.113C11.6365 13.558 11.7845 12.9228 11.7845 12.2075C11.7845 11.7018 11.7105 11.2455 11.5625 10.8385C11.4145 10.4192 11.1925 10.043 10.8965 9.71C10.6128 9.377 10.2675 9.08717 9.8605 8.8405C9.4535 8.5815 8.991 8.3595 8.473 8.1745C7.96733 7.9895 7.50483 7.82917 7.0855 7.6935C6.66617 7.5455 6.327 7.39133 6.068 7.231C5.82133 7.05833 5.698 6.8425 5.698 6.5835C5.698 6.37383 5.78433 6.21967 5.957 6.121C6.142 6.02233 6.37633 5.973 6.66 5.973C6.89433 5.973 7.13483 6.01617 7.3815 6.1025C7.62817 6.18883 7.86867 6.3245 8.103 6.5095C8.34967 6.68217 8.57167 6.92267 8.769 7.231L11.7845 5.566C11.5502 5.122 11.2048 4.678 10.7485 4.234C10.3045 3.79 9.731 3.42 9.028 3.124C8.33733 2.828 7.50483 2.68 6.5305 2.68C5.63017 2.68 4.80383 2.828 4.0515 3.124C3.29917 3.42 2.69483 3.85783 2.2385 4.4375C1.78217 5.01717 1.554 5.7325 1.554 6.5835C1.554 7.23717 1.67117 7.8045 1.9055 8.2855C2.15217 8.7665 2.45433 9.1735 2.812 9.5065C3.182 9.8395 3.56433 10.1108 3.959 10.3205C4.366 10.5302 4.72367 10.6967 5.032 10.82C5.735 11.0913 6.25917 11.3072 6.6045 11.4675C6.94983 11.6278 7.178 11.7697 7.289 11.893C7.41233 12.0163 7.474 12.1643 7.474 12.337C7.474 12.6207 7.363 12.8303 7.141 12.966C6.919 13.0893 6.64767 13.151 6.327 13.151C5.94467 13.151 5.56233 13.0708 5.18 12.9105C4.81 12.7502 4.46467 12.5158 4.144 12.2075C3.82333 11.8868 3.53967 11.5107 3.293 11.079ZM27.1372 10.45C27.1372 9.77167 27.0632 9.19817 26.9152 8.7295C26.7672 8.26083 26.502 7.90317 26.1197 7.6565C25.7497 7.40983 25.207 7.2865 24.4917 7.2865C23.912 7.2865 23.3879 7.40367 22.9192 7.638C22.4505 7.87233 22.0559 8.18683 21.7352 8.5815C21.5749 8.14983 21.3035 7.82917 20.9212 7.6195C20.5512 7.3975 20.0147 7.2865 19.3117 7.2865C18.695 7.2865 18.177 7.42217 17.7577 7.6935C17.3384 7.96483 17.0115 8.3225 16.7772 8.7665V7.49H13.3547V16H16.7772V10.82C16.7772 10.5363 16.8142 10.3082 16.8882 10.1355C16.9622 9.9505 17.0609 9.81483 17.1842 9.7285C17.3075 9.64217 17.4432 9.599 17.5912 9.599C17.8749 9.599 18.0722 9.71 18.1832 9.932C18.2942 10.1417 18.3497 10.4377 18.3497 10.82V16H21.9572V10.82C21.9572 10.5363 21.9942 10.3082 22.0682 10.1355C22.1422 9.9505 22.2409 9.81483 22.3642 9.7285C22.4875 9.64217 22.6232 9.599 22.7712 9.599C23.0549 9.599 23.2522 9.71 23.3632 9.932C23.4742 10.1417 23.5297 10.4377 23.5297 10.82V16H27.1372V10.45ZM32.0531 13.3175C32.0531 13.1695 32.084 13.0523 32.1456 12.966C32.2073 12.8673 32.306 12.7933 32.4416 12.744C32.5896 12.6947 32.7808 12.67 33.0151 12.67C33.3851 12.67 33.7428 12.7255 34.0881 12.8365C34.4458 12.9475 34.7295 13.0955 34.9391 13.2805V11.819C34.7541 11.6217 34.4951 11.4613 34.1621 11.338C33.8415 11.2023 33.4715 11.0975 33.0521 11.0235C32.6451 10.9495 32.2196 10.9125 31.7756 10.9125C30.6903 10.9125 29.8578 11.1468 29.2781 11.6155C28.7108 12.0718 28.4271 12.707 28.4271 13.521C28.4271 14.1007 28.569 14.594 28.8526 15.001C29.1363 15.3957 29.5125 15.6917 29.9811 15.889C30.4498 16.0863 30.9616 16.185 31.5166 16.185C32.1086 16.185 32.639 16.0863 33.1076 15.889C33.5763 15.6793 33.9463 15.3833 34.2176 15.001C34.489 14.6063 34.6246 14.1377 34.6246 13.595L34.3286 12.485C34.3286 12.855 34.2546 13.1572 34.1066 13.3915C33.971 13.6135 33.7921 13.78 33.5701 13.891C33.3605 13.9897 33.1385 14.039 32.9041 14.039C32.7561 14.039 32.6143 14.0143 32.4786 13.965C32.3553 13.9033 32.2505 13.8232 32.1641 13.7245C32.0901 13.6135 32.0531 13.4778 32.0531 13.3175ZM30.1846 10.487C30.2956 10.4253 30.4991 10.3452 30.7951 10.2465C31.0911 10.1355 31.4303 10.043 31.8126 9.969C32.195 9.88267 32.5588 9.8395 32.9041 9.8395C33.1631 9.8395 33.3851 9.87033 33.5701 9.932C33.7551 9.98133 33.9031 10.0615 34.0141 10.1725C34.1251 10.2712 34.2053 10.3883 34.2546 10.524C34.304 10.6597 34.3286 10.8077 34.3286 10.968V16H37.7511V10.08C37.7511 9.46333 37.56 8.94533 37.1776 8.526C36.7953 8.09433 36.2773 7.7675 35.6236 7.5455C34.97 7.3235 34.2423 7.2125 33.4406 7.2125C32.6266 7.2125 31.8435 7.31117 31.0911 7.5085C30.3511 7.70583 29.6851 7.92167 29.0931 8.156L30.1846 10.487ZM43.1202 7.49H39.6052V16H43.1202V7.49ZM45.5067 11.153L46.9682 8.045C46.8572 7.83533 46.6537 7.6565 46.3577 7.5085C46.074 7.34817 45.778 7.268 45.4697 7.268C44.9517 7.268 44.4583 7.42833 43.9897 7.749C43.5333 8.05733 43.1633 8.47667 42.8797 9.007C42.596 9.53733 42.4542 10.1417 42.4542 10.82L43.1202 12.3925C43.1202 11.9855 43.1818 11.6525 43.3052 11.3935C43.4408 11.1345 43.6135 10.9433 43.8232 10.82C44.0328 10.6967 44.2425 10.635 44.4522 10.635C44.6988 10.635 44.9085 10.6843 45.0812 10.783C45.2538 10.8817 45.3957 11.005 45.5067 11.153ZM47.1555 7.49V10.3575H53.723V7.49H47.1555ZM48.728 4.53V16H52.1505V4.53H48.728Z" fill="#14206B"/>
<path d="M59.292 9.8025H61.9375C62.8995 9.8025 63.7567 9.673 64.509 9.414C65.2737 9.14267 65.878 8.75417 66.322 8.2485C66.766 7.7305 66.988 7.10767 66.988 6.38C66.988 5.64 66.766 5.02333 66.322 4.53C65.878 4.03667 65.2737 3.66667 64.509 3.42C63.7567 3.17333 62.8995 3.05 61.9375 3.05H56.295V16H62.3075C63.4545 16 64.4288 15.8828 65.2305 15.6485C66.0445 15.4142 66.6612 15.038 67.0805 14.52C67.5122 14.002 67.728 13.3113 67.728 12.448C67.728 11.7573 67.5615 11.1715 67.2285 10.6905C66.9078 10.1972 66.4823 9.79633 65.952 9.488C65.4217 9.17967 64.8358 8.95767 64.1945 8.822C63.5655 8.674 62.9365 8.6 62.3075 8.6H59.292V10.82H61.7525C61.9868 10.82 62.2027 10.8323 62.4 10.857C62.6097 10.8817 62.7947 10.931 62.955 11.005C63.1153 11.0667 63.2387 11.1653 63.325 11.301C63.4237 11.4243 63.473 11.5908 63.473 11.8005C63.473 12.1458 63.3928 12.3987 63.2325 12.559C63.0722 12.7193 62.8625 12.8242 62.6035 12.8735C62.3445 12.9228 62.0608 12.9475 61.7525 12.9475H60.365V6.1025H61.3825C61.8512 6.1025 62.1903 6.18267 62.4 6.343C62.622 6.491 62.733 6.7315 62.733 7.0645C62.733 7.2865 62.6837 7.47767 62.585 7.638C62.4863 7.79833 62.3383 7.92167 62.141 8.008C61.9437 8.09433 61.6908 8.1375 61.3825 8.1375H59.292V9.8025ZM72.4555 13.3175C72.4555 13.1695 72.4863 13.0523 72.548 12.966C72.6096 12.8673 72.7083 12.7933 72.844 12.744C72.992 12.6947 73.1831 12.67 73.4175 12.67C73.7875 12.67 74.1451 12.7255 74.4905 12.8365C74.8481 12.9475 75.1318 13.0955 75.3415 13.2805V11.819C75.1565 11.6217 74.8975 11.4613 74.5645 11.338C74.2438 11.2023 73.8738 11.0975 73.4545 11.0235C73.0475 10.9495 72.622 10.9125 72.178 10.9125C71.0926 10.9125 70.2601 11.1468 69.6805 11.6155C69.1131 12.0718 68.8295 12.707 68.8295 13.521C68.8295 14.1007 68.9713 14.594 69.255 15.001C69.5386 15.3957 69.9148 15.6917 70.3835 15.889C70.8521 16.0863 71.364 16.185 71.919 16.185C72.511 16.185 73.0413 16.0863 73.51 15.889C73.9786 15.6793 74.3486 15.3833 74.62 15.001C74.8913 14.6063 75.027 14.1377 75.027 13.595L74.731 12.485C74.731 12.855 74.657 13.1572 74.509 13.3915C74.3733 13.6135 74.1945 13.78 73.9725 13.891C73.7628 13.9897 73.5408 14.039 73.3065 14.039C73.1585 14.039 73.0166 14.0143 72.881 13.965C72.7576 13.9033 72.6528 13.8232 72.5665 13.7245C72.4925 13.6135 72.4555 13.4778 72.4555 13.3175ZM70.587 10.487C70.698 10.4253 70.9015 10.3452 71.1975 10.2465C71.4935 10.1355 71.8326 10.043 72.215 9.969C72.5973 9.88267 72.9611 9.8395 73.3065 9.8395C73.5655 9.8395 73.7875 9.87033 73.9725 9.932C74.1575 9.98133 74.3055 10.0615 74.4165 10.1725C74.5275 10.2712 74.6076 10.3883 74.657 10.524C74.7063 10.6597 74.731 10.8077 74.731 10.968V16H78.1535V10.08C78.1535 9.46333 77.9623 8.94533 77.58 8.526C77.1976 8.09433 76.6796 7.7675 76.026 7.5455C75.3723 7.3235 74.6446 7.2125 73.843 7.2125C73.029 7.2125 72.2458 7.31117 71.4935 7.5085C70.7535 7.70583 70.0875 7.92167 69.4955 8.156L70.587 10.487ZM83.3375 10.7275L79.36 16H88.425V12.7625H85.539L89.165 7.49H80.285V10.7275H83.3375ZM93.4306 13.3175C93.4306 13.1695 93.4614 13.0523 93.5231 12.966C93.5847 12.8673 93.6834 12.7933 93.8191 12.744C93.9671 12.6947 94.1582 12.67 94.3926 12.67C94.7626 12.67 95.1202 12.7255 95.4656 12.8365C95.8232 12.9475 96.1069 13.0955 96.3166 13.2805V11.819C96.1316 11.6217 95.8726 11.4613 95.5396 11.338C95.2189 11.2023 94.8489 11.0975 94.4296 11.0235C94.0226 10.9495 93.5971 10.9125 93.1531 10.9125C92.0677 10.9125 91.2352 11.1468 90.6556 11.6155C90.0882 12.0718 89.8046 12.707 89.8046 13.521C89.8046 14.1007 89.9464 14.594 90.2301 15.001C90.5137 15.3957 90.8899 15.6917 91.3586 15.889C91.8272 16.0863 92.3391 16.185 92.8941 16.185C93.4861 16.185 94.0164 16.0863 94.4851 15.889C94.9537 15.6793 95.3237 15.3833 95.5951 15.001C95.8664 14.6063 96.0021 14.1377 96.0021 13.595L95.7061 12.485C95.7061 12.855 95.6321 13.1572 95.4841 13.3915C95.3484 13.6135 95.1696 13.78 94.9476 13.891C94.7379 13.9897 94.5159 14.039 94.2816 14.039C94.1336 14.039 93.9917 14.0143 93.8561 13.965C93.7327 13.9033 93.6279 13.8232 93.5416 13.7245C93.4676 13.6135 93.4306 13.4778 93.4306 13.3175ZM91.5621 10.487C91.6731 10.4253 91.8766 10.3452 92.1726 10.2465C92.4686 10.1355 92.8077 10.043 93.1901 9.969C93.5724 9.88267 93.9362 9.8395 94.2816 9.8395C94.5406 9.8395 94.7626 9.87033 94.9476 9.932C95.1326 9.98133 95.2806 10.0615 95.3916 10.1725C95.5026 10.2712 95.5827 10.3883 95.6321 10.524C95.6814 10.6597 95.7061 10.8077 95.7061 10.968V16H99.1286V10.08C99.1286 9.46333 98.9374 8.94533 98.5551 8.526C98.1727 8.09433 97.6547 7.7675 97.0011 7.5455C96.3474 7.3235 95.6197 7.2125 94.8181 7.2125C94.0041 7.2125 93.2209 7.31117 92.4686 7.5085C91.7286 7.70583 91.0626 7.92167 90.4706 8.156L91.5621 10.487ZM104.054 13.3175C104.054 13.1695 104.084 13.0523 104.146 12.966C104.208 12.8673 104.306 12.7933 104.442 12.744C104.59 12.6947 104.781 12.67 105.016 12.67C105.386 12.67 105.743 12.7255 106.089 12.8365C106.446 12.9475 106.73 13.0955 106.94 13.2805V11.819C106.755 11.6217 106.496 11.4613 106.163 11.338C105.842 11.2023 105.472 11.0975 105.053 11.0235C104.646 10.9495 104.22 10.9125 103.776 10.9125C102.691 10.9125 101.858 11.1468 101.279 11.6155C100.711 12.0718 100.428 12.707 100.428 13.521C100.428 14.1007 100.569 14.594 100.853 15.001C101.137 15.3957 101.513 15.6917 101.982 15.889C102.45 16.0863 102.962 16.185 103.517 16.185C104.109 16.185 104.639 16.0863 105.108 15.889C105.577 15.6793 105.947 15.3833 106.218 15.001C106.489 14.6063 106.625 14.1377 106.625 13.595L106.329 12.485C106.329 12.855 106.255 13.1572 106.107 13.3915C105.971 13.6135 105.793 13.78 105.571 13.891C105.361 13.9897 105.139 14.039 104.905 14.039C104.757 14.039 104.615 14.0143 104.479 13.965C104.356 13.9033 104.251 13.8232 104.165 13.7245C104.091 13.6135 104.054 13.4778 104.054 13.3175ZM102.185 10.487C102.296 10.4253 102.5 10.3452 102.796 10.2465C103.092 10.1355 103.431 10.043 103.813 9.969C104.195 9.88267 104.559 9.8395 104.905 9.8395C105.164 9.8395 105.386 9.87033 105.571 9.932C105.756 9.98133 105.904 10.0615 106.015 10.1725C106.126 10.2712 106.206 10.3883 106.255 10.524C106.304 10.6597 106.329 10.8077 106.329 10.968V16H109.752V10.08C109.752 9.46333 109.56 8.94533 109.178 8.526C108.796 8.09433 108.278 7.7675 107.624 7.5455C106.97 7.3235 106.243 7.2125 105.441 7.2125C104.627 7.2125 103.844 7.31117 103.092 7.5085C102.352 7.70583 101.686 7.92167 101.094 8.156L102.185 10.487ZM115.121 7.49H111.606V16H115.121V7.49ZM117.507 11.153L118.969 8.045C118.858 7.83533 118.654 7.6565 118.358 7.5085C118.074 7.34817 117.778 7.268 117.47 7.268C116.952 7.268 116.459 7.42833 115.99 7.749C115.534 8.05733 115.164 8.47667 114.88 9.007C114.596 9.53733 114.455 10.1417 114.455 10.82L115.121 12.3925C115.121 11.9855 115.182 11.6525 115.306 11.3935C115.441 11.1345 115.614 10.9433 115.824 10.82C116.033 10.6967 116.243 10.635 116.453 10.635C116.699 10.635 116.909 10.6843 117.082 10.783C117.254 10.8817 117.396 11.005 117.507 11.153Z" fill="#00C78F"/>
</g>
<defs>
<clipPath id="clip0_118_2">
<rect width="120" height="18" fill="white"/>
</clipPath>
</defs>
</svg>
