<svg width="110" height="18" viewBox="0 0 110 18" fill="none" xmlns="http://www.w3.org/2000/svg">
<path d="M59.6748 13.4156H60.4058C61.2444 13.4156 61.8451 13.308 62.2078 13.0926C62.5704 12.8773 62.7518 12.5316 62.7518 12.0556C62.7518 11.5796 62.5704 11.234 62.2078 11.0186C61.8451 10.8033 61.2444 10.6956 60.4058 10.6956H59.6748V13.4156ZM59.6748 8.21364H60.2868C61.3294 8.21364 61.8508 7.79997 61.8508 6.97264C61.8508 6.14531 61.3294 5.73164 60.2868 5.73164H59.6748V8.21364ZM56.3428 3.18164H61.3068C62.4854 3.18164 63.3808 3.46497 63.9928 4.03164C64.6048 4.59831 64.9108 5.41431 64.9108 6.47964C64.9108 7.12564 64.7918 7.66397 64.5538 8.09464C64.3271 8.51397 63.9758 8.87097 63.4998 9.16564C63.9758 9.25631 64.3781 9.39797 64.7068 9.59064C65.0468 9.77197 65.3188 9.99864 65.5228 10.2706C65.7381 10.5426 65.8911 10.8486 65.9818 11.1886C66.0724 11.5286 66.1178 11.8913 66.1178 12.2766C66.1178 12.8773 66.0101 13.41 65.7948 13.8746C65.5908 14.3393 65.2961 14.7303 64.9108 15.0476C64.5368 15.365 64.0778 15.603 63.5338 15.7616C62.9898 15.9203 62.3778 15.9996 61.6978 15.9996H56.3428V3.18164Z" fill="black"/>
<path d="M70.6803 11.6136C70.6803 11.897 70.7313 12.1633 70.8333 12.4126C70.9353 12.6506 71.0713 12.8603 71.2413 13.0416C71.4226 13.223 71.6323 13.3646 71.8703 13.4666C72.1196 13.5686 72.3859 13.6196 72.6693 13.6196C72.9413 13.6196 73.1963 13.5686 73.4343 13.4666C73.6836 13.3646 73.8933 13.223 74.0633 13.0416C74.2446 12.8603 74.3863 12.6506 74.4883 12.4126C74.6016 12.1746 74.6583 11.9196 74.6583 11.6476C74.6583 11.3756 74.6016 11.1206 74.4883 10.8826C74.3863 10.6333 74.2446 10.418 74.0633 10.2366C73.8933 10.0553 73.6836 9.91364 73.4343 9.81164C73.1963 9.70964 72.9413 9.65864 72.6693 9.65864C72.3859 9.65864 72.1196 9.70964 71.8703 9.81164C71.6323 9.91364 71.4226 10.0553 71.2413 10.2366C71.0713 10.418 70.9353 10.6276 70.8333 10.8656C70.7313 11.0923 70.6803 11.3416 70.6803 11.6136ZM74.5563 7.27864H77.6503V15.9996H74.5563V15.0306C73.8989 15.858 73.0093 16.2716 71.8873 16.2716C71.2526 16.2716 70.6689 16.1583 70.1363 15.9316C69.6036 15.6936 69.1389 15.365 68.7423 14.9456C68.3456 14.5263 68.0339 14.0333 67.8073 13.4666C67.5919 12.9 67.4843 12.2823 67.4843 11.6136C67.4843 10.9903 67.5919 10.401 67.8073 9.84564C68.0226 9.27897 68.3229 8.78597 68.7083 8.36664C69.0936 7.94731 69.5526 7.61864 70.0853 7.38064C70.6179 7.13131 71.2073 7.00664 71.8533 7.00664C72.9413 7.00664 73.8423 7.38631 74.5563 8.14564V7.27864Z" fill="black"/>
<path d="M84.2322 13.4326H87.9042V15.9996H79.0642L83.1782 9.84564H79.6252V7.27864H88.3122L84.2322 13.4326Z" fill="black"/>
<path d="M92.6109 11.6136C92.6109 11.897 92.6619 12.1633 92.7639 12.4126C92.8659 12.6506 93.0019 12.8603 93.1719 13.0416C93.3533 13.223 93.5629 13.3646 93.8009 13.4666C94.0503 13.5686 94.3166 13.6196 94.5999 13.6196C94.8719 13.6196 95.1269 13.5686 95.3649 13.4666C95.6143 13.3646 95.8239 13.223 95.9939 13.0416C96.1753 12.8603 96.3169 12.6506 96.4189 12.4126C96.5323 12.1746 96.5889 11.9196 96.5889 11.6476C96.5889 11.3756 96.5323 11.1206 96.4189 10.8826C96.3169 10.6333 96.1753 10.418 95.9939 10.2366C95.8239 10.0553 95.6143 9.91364 95.3649 9.81164C95.1269 9.70964 94.8719 9.65864 94.5999 9.65864C94.3166 9.65864 94.0503 9.70964 93.8009 9.81164C93.5629 9.91364 93.3533 10.0553 93.1719 10.2366C93.0019 10.418 92.8659 10.6276 92.7639 10.8656C92.6619 11.0923 92.6109 11.3416 92.6109 11.6136ZM96.4869 7.27864H99.5809V15.9996H96.4869V15.0306C95.8296 15.858 94.9399 16.2716 93.8179 16.2716C93.1833 16.2716 92.5996 16.1583 92.0669 15.9316C91.5343 15.6936 91.0696 15.365 90.6729 14.9456C90.2763 14.5263 89.9646 14.0333 89.7379 13.4666C89.5226 12.9 89.4149 12.2823 89.4149 11.6136C89.4149 10.9903 89.5226 10.401 89.7379 9.84564C89.9533 9.27897 90.2536 8.78597 90.6389 8.36664C91.0243 7.94731 91.4833 7.61864 92.0159 7.38064C92.5486 7.13131 93.1379 7.00664 93.7839 7.00664C94.8719 7.00664 95.7729 7.38631 96.4869 8.14564V7.27864Z" fill="black"/>
<path d="M101.675 7.27864H104.752V8.70664C105.081 8.18531 105.483 7.78864 105.959 7.51664C106.435 7.23331 106.99 7.09164 107.625 7.09164C107.704 7.09164 107.789 7.09164 107.88 7.09164C107.982 7.09164 108.095 7.10297 108.22 7.12564V10.0666C107.812 9.86264 107.37 9.76064 106.894 9.76064C106.18 9.76064 105.642 9.97597 105.279 10.4066C104.928 10.826 104.752 11.4436 104.752 12.2596V15.9996H101.675V7.27864Z" fill="black"/>
<path d="M8.38114 6.4632C8.01847 6.16853 7.6558 5.9532 7.29314 5.8172C6.93047 5.66986 6.57914 5.5962 6.23914 5.5962C5.80847 5.5962 5.45714 5.6982 5.18514 5.9022C4.91314 6.1062 4.77714 6.37253 4.77714 6.7012C4.77714 6.92786 4.84514 7.11486 4.98114 7.2622C5.11714 7.40953 5.2928 7.53986 5.50814 7.6532C5.7348 7.7552 5.98414 7.84586 6.25614 7.9252C6.53947 8.00453 6.81714 8.08953 7.08914 8.1802C8.17714 8.54286 8.97047 9.0302 9.46914 9.6422C9.97914 10.2429 10.2341 11.0305 10.2341 12.0052C10.2341 12.6625 10.1208 13.2575 9.89414 13.7902C9.6788 14.3229 9.3558 14.7819 8.92514 15.1672C8.5058 15.5412 7.98447 15.8302 7.36114 16.0342C6.74914 16.2495 6.05214 16.3572 5.27014 16.3572C3.64947 16.3572 2.1478 15.8755 0.765137 14.9122L2.19314 12.2262C2.6918 12.6682 3.1848 12.9969 3.67214 13.2122C4.15947 13.4275 4.64114 13.5352 5.11714 13.5352C5.66114 13.5352 6.06347 13.4105 6.32414 13.1612C6.59614 12.9119 6.73214 12.6285 6.73214 12.3112C6.73214 12.1185 6.69814 11.9542 6.63014 11.8182C6.56214 11.6709 6.4488 11.5405 6.29014 11.4272C6.13147 11.3025 5.9218 11.1892 5.66114 11.0872C5.4118 10.9852 5.1058 10.8719 4.74314 10.7472C4.31247 10.6112 3.88747 10.4639 3.46814 10.3052C3.06014 10.1352 2.6918 9.9142 2.36314 9.6422C2.0458 9.3702 1.78514 9.0302 1.58114 8.6222C1.38847 8.20286 1.29214 7.67586 1.29214 7.0412C1.29214 6.40653 1.39414 5.8342 1.59814 5.3242C1.81347 4.80286 2.10814 4.36086 2.48214 3.9982C2.86747 3.6242 3.33214 3.3352 3.87614 3.1312C4.43147 2.9272 5.04914 2.8252 5.72914 2.8252C6.3638 2.8252 7.0268 2.91586 7.71814 3.09719C8.40947 3.2672 9.07247 3.5222 9.70714 3.8622L8.38114 6.4632Z" fill="#008D71"/>
<path d="M12.0444 7.2792H15.1214V8.3502C15.96 7.54553 16.9007 7.1432 17.9434 7.1432C19.2354 7.1432 20.2214 7.6872 20.9014 8.7752C21.5927 7.67586 22.5787 7.1262 23.8594 7.1262C24.2674 7.1262 24.6527 7.18853 25.0154 7.3132C25.378 7.42653 25.6897 7.61353 25.9504 7.8742C26.211 8.12353 26.415 8.4522 26.5624 8.8602C26.721 9.2682 26.8004 9.7612 26.8004 10.3392V16.0002H23.7234V11.6992C23.7234 11.2572 23.6894 10.8945 23.6214 10.6112C23.5647 10.3279 23.474 10.1069 23.3494 9.9482C23.236 9.78953 23.1 9.68186 22.9414 9.6252C22.7827 9.56853 22.6127 9.5402 22.4314 9.5402C21.4454 9.5402 20.9524 10.2599 20.9524 11.6992V16.0002H17.8754V11.6992C17.8754 11.2572 17.847 10.8945 17.7904 10.6112C17.7337 10.3165 17.6487 10.0842 17.5354 9.9142C17.4334 9.7442 17.2974 9.63086 17.1274 9.5742C16.9574 9.5062 16.759 9.4722 16.5324 9.4722C16.3397 9.4722 16.1584 9.50053 15.9884 9.5572C15.8184 9.61386 15.6654 9.7272 15.5294 9.8972C15.4047 10.0559 15.3027 10.2825 15.2234 10.5772C15.1554 10.8605 15.1214 11.2345 15.1214 11.6992V16.0002H12.0444V7.2792Z" fill="#008D71"/>
<path d="M31.7676 11.6142C31.7676 11.8975 31.8186 12.1639 31.9206 12.4132C32.0226 12.6512 32.1586 12.8609 32.3286 13.0422C32.5099 13.2235 32.7196 13.3652 32.9576 13.4672C33.2069 13.5692 33.4732 13.6202 33.7566 13.6202C34.0286 13.6202 34.2836 13.5692 34.5216 13.4672C34.7709 13.3652 34.9806 13.2235 35.1506 13.0422C35.3319 12.8609 35.4736 12.6512 35.5756 12.4132C35.6889 12.1752 35.7456 11.9202 35.7456 11.6482C35.7456 11.3762 35.6889 11.1212 35.5756 10.8832C35.4736 10.6339 35.3319 10.4185 35.1506 10.2372C34.9806 10.0559 34.7709 9.9142 34.5216 9.8122C34.2836 9.7102 34.0286 9.6592 33.7566 9.6592C33.4732 9.6592 33.2069 9.7102 32.9576 9.8122C32.7196 9.9142 32.5099 10.0559 32.3286 10.2372C32.1586 10.4185 32.0226 10.6282 31.9206 10.8662C31.8186 11.0929 31.7676 11.3422 31.7676 11.6142ZM35.6436 7.2792H38.7376V16.0002H35.6436V15.0312C34.9862 15.8585 34.0966 16.2722 32.9746 16.2722C32.3399 16.2722 31.7562 16.1589 31.2236 15.9322C30.6909 15.6942 30.2262 15.3655 29.8296 14.9462C29.4329 14.5269 29.1212 14.0339 28.8946 13.4672C28.6792 12.9005 28.5716 12.2829 28.5716 11.6142C28.5716 10.9909 28.6792 10.4015 28.8946 9.8462C29.1099 9.27953 29.4102 8.78653 29.7956 8.3672C30.1809 7.94786 30.6399 7.6192 31.1726 7.3812C31.7052 7.13186 32.2946 7.00719 32.9406 7.00719C34.0286 7.00719 34.9296 7.38686 35.6436 8.1462V7.2792Z" fill="#008D71"/>
<path d="M40.8315 7.2792H43.9085V8.7072C44.2371 8.18586 44.6395 7.7892 45.1155 7.5172C45.5915 7.23386 46.1468 7.0922 46.7815 7.0922C46.8608 7.0922 46.9458 7.0922 47.0365 7.0922C47.1385 7.0922 47.2518 7.10353 47.3765 7.1262V10.0672C46.9685 9.8632 46.5265 9.7612 46.0505 9.7612C45.3365 9.7612 44.7981 9.97653 44.4355 10.4072C44.0841 10.8265 43.9085 11.4442 43.9085 12.2602V16.0002H40.8315V7.2792Z" fill="#008D71"/>
<path d="M52.4999 9.8462V16.0002H49.4229V9.8462H48.4029V7.2792H49.4229V4.6612H52.4999V7.2792H54.2509V9.8462H52.4999Z" fill="#008D71"/>
</svg>
